<?xml version="1.0" standalone="no"?>
<!DOCTYPE svg PUBLIC "-//W3C//DTD SVG 20010904//EN"
 "http://www.w3.org/TR/2001/REC-SVG-20010904/DTD/svg10.dtd">
<svg version="1.0" xmlns="http://www.w3.org/2000/svg"
 width="700.000000pt" height="700.000000pt" viewBox="0 0 700.000000 700.000000"
 preserveAspectRatio="xMidYMid meet">
<metadata>
Created by potrace 1.14, written by Peter Selinger 2001-2017
</metadata>
<g transform="translate(0.000000,700.000000) scale(0.100000,-0.100000)"
fill="#000000" stroke="none">
<path d="M1935 5634 c-83 -7 -289 -32 -480 -58 -99 -14 -292 -37 -430 -51
-273 -29 -323 -42 -350 -96 -13 -24 -15 -272 -15 -1904 0 -1761 1 -1879 17
-1906 10 -16 36 -38 58 -49 40 -19 65 -20 943 -20 l902 0 0 -42 c0 -25 8 -57
20 -76 38 -63 40 -63 560 -60 l468 3 27 25 c40 37 58 78 52 117 l-6 33 907 0
c1012 0 950 -4 999 69 23 34 23 35 23 430 l0 396 183 -183 c139 -139 188 -182
207 -182 86 0 320 235 320 321 0 8 -160 174 -355 369 l-355 355 0 1135 c0
1284 6 1184 -80 1228 -38 19 -60 22 -165 22 -144 0 -307 18 -555 60 -266 45
-384 59 -565 66 -415 17 -766 -67 -1045 -250 -47 -31 -94 -56 -105 -56 -11 0
-58 25 -105 56 -249 163 -519 241 -860 248 -91 2 -187 2 -215 0z m314 -254
c267 -24 456 -88 679 -232 l92 -60 0 -1519 c0 -835 -3 -1519 -8 -1519 -4 0
-30 16 -57 36 -129 91 -288 159 -456 195 -149 32 -401 32 -582 0 -243 -42
-525 -131 -844 -265 l-133 -55 0 1645 c0 1168 3 1644 11 1644 68 0 305 30 514
65 280 48 438 66 625 73 25 1 96 -3 159 -8z m2196 -11 c55 -5 195 -25 310 -44
248 -41 446 -65 532 -65 l63 0 0 -335 0 -336 -47 47 c-105 101 -254 191 -400
240 -230 78 -508 71 -731 -17 -449 -177 -730 -632 -682 -1106 47 -459 370
-832 819 -946 125 -32 378 -31 504 1 118 29 219 73 321 137 l84 53 27 -28 26
-27 -23 -47 -22 -46 62 -63 62 -63 0 -383 c0 -302 -3 -382 -12 -378 -7 3 -83
33 -168 67 -303 121 -625 217 -865 257 -154 25 -456 25 -575 0 -192 -41 -389
-132 -497 -230 l-23 -20 0 1521 0 1522 68 50 c280 208 674 288 1167 239z m341
-744 c154 -45 291 -134 391 -254 66 -80 146 -240 167 -338 20 -91 20 -267 1
-353 -68 -295 -282 -517 -580 -601 -64 -19 -104 -23 -205 -22 -153 0 -239 21
-373 90 -74 38 -110 65 -183 138 -106 105 -159 188 -206 325 -31 91 -32 102
-32 245 0 143 1 154 32 245 47 137 100 220 206 325 165 165 361 240 592 230
66 -3 131 -13 190 -30z"/>
</g>
</svg>
